<svg width="129" height="36" viewBox="0 0 129 36" fill="none" xmlns="http://www.w3.org/2000/svg">
<g clip-path="url(#clip0_70_422)">
<path d="M57.9528 19.0804L55.9228 13.6052C55.8411 13.3812 55.5226 13.3812 55.4398 13.6052L53.4098 19.0804C53.3952 19.1193 53.3903 19.1612 53.3955 19.2024C53.4007 19.2436 53.4159 19.2829 53.4396 19.317C53.4634 19.3511 53.495 19.3789 53.5319 19.398C53.5688 19.4171 53.6097 19.4271 53.6513 19.4269H57.7113C57.7528 19.4271 57.7937 19.4171 57.8306 19.398C57.8675 19.3789 57.8991 19.3511 57.9229 19.317C57.9466 19.2829 57.9618 19.2436 57.967 19.2024C57.9722 19.1612 57.9673 19.1193 57.9528 19.0804ZM58.8908 22.1569H52.4834C52.4308 22.1568 52.3794 22.1728 52.3362 22.2029C52.293 22.2329 52.2601 22.2755 52.2419 22.3249L50.9784 25.7316C50.9602 25.7809 50.9273 25.8235 50.8841 25.8536C50.8409 25.8836 50.7895 25.8997 50.7369 25.8996H47.9544C47.9122 25.8998 47.8706 25.8896 47.8333 25.8699C47.7959 25.8503 47.764 25.8217 47.7404 25.7867C47.7167 25.7518 47.7021 25.7115 47.6977 25.6695C47.6933 25.6276 47.6993 25.5851 47.7153 25.5461L54.1319 9.58605C54.1511 9.53836 54.1841 9.49751 54.2268 9.4688C54.2694 9.44009 54.3197 9.42486 54.3711 9.42505H57.0358C57.0872 9.42486 57.1374 9.44009 57.1801 9.4688C57.2227 9.49751 57.2558 9.53836 57.2749 9.58605L63.6916 25.5461C63.7075 25.5851 63.7136 25.6276 63.7092 25.6695C63.7048 25.7115 63.6901 25.7518 63.6665 25.7867C63.6428 25.8217 63.6109 25.8503 63.5736 25.8699C63.5362 25.8896 63.4946 25.8998 63.4524 25.8996H60.6501C60.5975 25.8997 60.5461 25.8836 60.5029 25.8536C60.4597 25.8235 60.4268 25.7809 60.4086 25.7316L59.1451 22.3249C59.1269 22.2755 59.094 22.2329 59.0508 22.2029C59.0076 22.1728 58.9562 22.1568 58.9036 22.1569M64.9749 15.0262H67.3549C67.3888 15.0261 67.4224 15.0326 67.4538 15.0455C67.4851 15.0584 67.5136 15.0774 67.5376 15.1014C67.5616 15.1254 67.5805 15.1539 67.5934 15.1852C67.6063 15.2166 67.6129 15.2502 67.6128 15.2841V25.6441C67.6129 25.678 67.6063 25.7116 67.5934 25.7429C67.5805 25.7743 67.5616 25.8027 67.5376 25.8267C67.5136 25.8507 67.4851 25.8697 67.4538 25.8826C67.4224 25.8955 67.3888 25.902 67.3549 25.9019H64.9749C64.941 25.902 64.9074 25.8955 64.8761 25.8826C64.8447 25.8697 64.8162 25.8507 64.7923 25.8267C64.7683 25.8027 64.7493 25.7743 64.7364 25.7429C64.7235 25.7116 64.7169 25.678 64.7171 25.6441V15.2607C64.7169 15.2268 64.7235 15.1932 64.7364 15.1619C64.7493 15.1305 64.7683 15.102 64.7923 15.0781C64.8162 15.0541 64.8447 15.0351 64.8761 15.0222C64.9074 15.0093 64.941 15.0027 64.9749 15.0029M76.2916 17.5229C76.2917 17.5568 76.2852 17.5904 76.2723 17.6217C76.2594 17.6531 76.2404 17.6816 76.2164 17.7055C76.1924 17.7295 76.164 17.7485 76.1326 17.7614C76.1012 17.7743 76.0677 17.7809 76.0338 17.7807H75.9614C74.7948 17.7807 73.9198 18.0631 73.3714 18.6277C72.8231 19.1924 72.5478 20.1257 72.5478 21.4277V25.6184C72.5479 25.6523 72.5413 25.6859 72.5284 25.7172C72.5155 25.7486 72.4966 25.7771 72.4726 25.801C72.4486 25.825 72.4201 25.844 72.3888 25.8569C72.3574 25.8698 72.3238 25.8764 72.2899 25.8762H69.9333C69.8993 25.8764 69.8658 25.8698 69.8344 25.8569C69.8031 25.844 69.7746 25.825 69.7506 25.801C69.7266 25.7771 69.7076 25.7486 69.6947 25.7172C69.6818 25.6859 69.6753 25.6523 69.6754 25.6184V15.2724C69.6753 15.2385 69.6818 15.2049 69.6947 15.1735C69.7076 15.1422 69.7266 15.1137 69.7506 15.0897C69.7746 15.0658 69.8031 15.0468 69.8344 15.0339C69.8658 15.021 69.8993 15.0144 69.9333 15.0146H72.2666C72.3005 15.0144 72.3341 15.021 72.3654 15.0339C72.3968 15.0468 72.4253 15.0658 72.4493 15.0897C72.4732 15.1137 72.4922 15.1422 72.5051 15.1735C72.518 15.2049 72.5246 15.2385 72.5244 15.2724V17.3211H72.5711C72.8534 16.4741 73.3003 15.8231 73.9128 15.3681C74.5253 14.9131 75.2778 14.6856 76.1714 14.6856H76.2881L76.2916 17.5229ZM82.7993 17.4272C82.7654 17.4271 82.7318 17.4336 82.7004 17.4465C82.6691 17.4594 82.6406 17.4784 82.6166 17.5024C82.5926 17.5264 82.5736 17.5549 82.5607 17.5862C82.5478 17.6176 82.5413 17.6512 82.5414 17.6851V21.9936C82.5414 22.4334 82.6278 22.7461 82.8004 22.9351C82.9731 23.1241 83.2706 23.2174 83.6941 23.2174H83.9309C83.9648 23.2172 83.9984 23.2238 84.0298 23.2367C84.0611 23.2496 84.0896 23.2686 84.1136 23.2926C84.1376 23.3165 84.1565 23.345 84.1694 23.3764C84.1823 23.4077 84.1889 23.4413 84.1888 23.4752V25.6557C84.1889 25.6896 84.1823 25.7232 84.1694 25.7546C84.1565 25.7859 84.1376 25.8144 84.1136 25.8384C84.0896 25.8624 84.0611 25.8813 84.0298 25.8942C83.9984 25.9071 83.9648 25.9137 83.9309 25.9136H82.9159C81.8659 25.9136 81.0563 25.6429 80.4916 25.1016C79.9269 24.5602 79.6446 23.7564 79.6446 22.6889V17.6979C79.6447 17.664 79.6382 17.6304 79.6253 17.599C79.6124 17.5677 79.5934 17.5392 79.5694 17.5152C79.5454 17.4913 79.517 17.4723 79.4856 17.4594C79.4543 17.4465 79.4207 17.4399 79.3868 17.4401H77.9016C77.8677 17.4402 77.8341 17.4336 77.8027 17.4207C77.7714 17.4078 77.7429 17.3889 77.7189 17.3649C77.695 17.3409 77.676 17.3124 77.6631 17.2811C77.6502 17.2497 77.6436 17.2161 77.6438 17.1822V15.2724C77.6436 15.2385 77.6502 15.2049 77.6631 15.1735C77.676 15.1422 77.695 15.1137 77.7189 15.0897C77.7429 15.0658 77.7714 15.0468 77.8027 15.0339C77.8341 15.021 77.8677 15.0144 77.9016 15.0146H79.3868C79.4207 15.0147 79.4543 15.0081 79.4856 14.9952C79.517 14.9823 79.5454 14.9634 79.5694 14.9394C79.5934 14.9154 79.6124 14.8869 79.6253 14.8556C79.6382 14.8242 79.6447 14.7906 79.6446 14.7567V10.9067C79.6444 10.8728 79.651 10.8392 79.6639 10.8079C79.6768 10.7765 79.6958 10.748 79.7198 10.7241C79.7437 10.7001 79.7722 10.6811 79.8036 10.6682C79.8349 10.6553 79.8685 10.6487 79.9024 10.6489H82.2824C82.3163 10.6487 82.3499 10.6553 82.3813 10.6682C82.4126 10.6811 82.4411 10.7001 82.4651 10.7241C82.4891 10.748 82.508 10.7765 82.5209 10.8079C82.5338 10.8392 82.5404 10.8728 82.5403 10.9067V14.7567C82.5401 14.7906 82.5467 14.8242 82.5596 14.8556C82.5725 14.8869 82.5915 14.9154 82.6154 14.9394C82.6394 14.9634 82.6679 14.9823 82.6992 14.9952C82.7306 15.0081 82.7642 15.0147 82.7981 15.0146H84.5189C84.5528 15.0144 84.5864 15.021 84.6178 15.0339C84.6491 15.0468 84.6776 15.0658 84.7016 15.0897C84.7256 15.1137 84.7445 15.1422 84.7574 15.1735C84.7703 15.2049 84.7769 15.2385 84.7768 15.2724V17.1822C84.7769 17.2161 84.7703 17.2497 84.7574 17.2811C84.7445 17.3124 84.7256 17.3409 84.7016 17.3649C84.6776 17.3889 84.6491 17.4078 84.6178 17.4207C84.5864 17.4336 84.5528 17.4402 84.5189 17.4401L82.7993 17.4272ZM93.6959 22.6516C94.2373 22.0869 94.5079 21.3496 94.5079 20.4396C94.5079 19.5296 94.2373 18.7922 93.6959 18.2276C93.1546 17.6629 92.4441 17.3806 91.5656 17.3806C90.6871 17.3806 89.9789 17.6629 89.4353 18.2276C88.8916 18.7922 88.6233 19.5296 88.6233 20.4396C88.6233 21.3496 88.8939 22.0869 89.4353 22.6516C89.9766 23.2162 90.6859 23.4986 91.5656 23.4986C92.4453 23.4986 93.1546 23.2162 93.6959 22.6516ZM88.2126 25.5449C87.4018 25.0792 86.7436 24.3882 86.3179 23.5557C85.8548 22.6854 85.6238 21.6459 85.6238 20.4372C85.6238 19.2286 85.8548 18.1902 86.3179 17.3187C86.7811 16.4472 87.4123 15.7857 88.2126 15.3296C89.0156 14.8738 89.9248 14.6383 90.8481 14.6471C91.6951 14.6471 92.4208 14.8104 93.0251 15.1417C93.6294 15.4731 94.1101 15.9351 94.4718 16.5417H94.5184V15.2724C94.5183 15.2385 94.5248 15.2049 94.5377 15.1735C94.5506 15.1422 94.5696 15.1137 94.5936 15.0897C94.6176 15.0658 94.6461 15.0468 94.6774 15.0339C94.7088 15.021 94.7424 15.0144 94.7763 15.0146H97.1329C97.1668 15.0144 97.2004 15.021 97.2318 15.0339C97.2631 15.0468 97.2916 15.0658 97.3156 15.0897C97.3396 15.1137 97.3585 15.1422 97.3714 15.1735C97.3843 15.2049 97.3909 15.2385 97.3908 15.2724V25.6324C97.3909 25.6663 97.3843 25.6999 97.3714 25.7312C97.3585 25.7626 97.3396 25.7911 97.3156 25.8151C97.2916 25.839 97.2631 25.858 97.2318 25.8709C97.2004 25.8838 97.1668 25.8904 97.1329 25.8902H94.7763C94.7424 25.8904 94.7088 25.8838 94.6774 25.8709C94.6461 25.858 94.6176 25.839 94.5936 25.8151C94.5696 25.7911 94.5506 25.7626 94.5377 25.7312C94.5248 25.6999 94.5183 25.6663 94.5184 25.6324V24.3491H94.4718C94.1218 24.9324 93.6283 25.4084 93.0251 25.7491C92.4219 26.0897 91.6951 26.2437 90.8481 26.2437C89.8914 26.2437 89.0129 26.0162 88.2114 25.5612M107.191 22.6679C107.732 22.1032 108.003 21.3659 108.003 20.4559C108.003 19.5459 107.732 18.8086 107.191 18.2439C106.649 17.6792 105.939 17.3969 105.06 17.3969C104.182 17.3969 103.471 17.6792 102.93 18.2439C102.389 18.8086 102.118 19.5459 102.118 20.4559C102.118 21.3659 102.389 22.1032 102.93 22.6679C103.471 23.2326 104.181 23.5149 105.06 23.5149C105.94 23.5149 106.649 23.2326 107.191 22.6679ZM103.614 25.7514C103.015 25.4274 102.515 24.9478 102.166 24.3631H102.119V25.6464C102.119 25.6803 102.113 25.7139 102.1 25.7452C102.087 25.7766 102.068 25.8051 102.044 25.829C102.02 25.853 101.992 25.872 101.96 25.8849C101.929 25.8978 101.895 25.9044 101.861 25.9042H99.4814C99.4475 25.9044 99.4139 25.8978 99.3826 25.8849C99.3512 25.872 99.3227 25.853 99.2988 25.829C99.2748 25.8051 99.2558 25.7766 99.2429 25.7452C99.23 25.7139 99.2234 25.6803 99.2236 25.6464V9.67239C99.2234 9.63849 99.23 9.60489 99.2429 9.57354C99.2558 9.54218 99.2748 9.5137 99.2988 9.48973C99.3227 9.46575 99.3512 9.44677 99.3826 9.43387C99.4139 9.42096 99.4475 9.4144 99.4814 9.41455H101.861C101.895 9.4144 101.929 9.42096 101.96 9.43387C101.992 9.44677 102.02 9.46575 102.044 9.48973C102.068 9.5137 102.087 9.54218 102.1 9.57354C102.113 9.60489 102.119 9.63849 102.119 9.67239V16.5557H102.166C102.515 15.971 103.015 15.4913 103.614 15.1674C104.218 14.8372 104.944 14.6727 105.791 14.6727C106.714 14.664 107.623 14.8994 108.426 15.3552C109.227 15.8219 109.858 16.4729 110.321 17.3444C110.784 18.2159 111.015 19.2554 111.015 20.4629C111.015 21.6704 110.782 22.7111 110.321 23.5814C109.86 24.4517 109.227 25.1156 108.426 25.5706C107.626 26.0256 106.746 26.2531 105.79 26.2531C104.943 26.2531 104.217 26.0897 103.613 25.7584M115.023 25.8984H112.643C112.609 25.8985 112.575 25.892 112.544 25.8791C112.512 25.8662 112.484 25.8472 112.46 25.8232C112.436 25.7992 112.417 25.7708 112.404 25.7394C112.391 25.7081 112.385 25.6745 112.385 25.6406V9.67239C112.385 9.63849 112.391 9.60489 112.404 9.57354C112.417 9.54218 112.436 9.5137 112.46 9.48973C112.484 9.46575 112.512 9.44677 112.544 9.43387C112.575 9.42096 112.609 9.4144 112.643 9.41455H115.023C115.056 9.4144 115.09 9.42096 115.121 9.43387C115.153 9.44677 115.181 9.46575 115.205 9.48973C115.229 9.5137 115.248 9.54218 115.261 9.57354C115.274 9.60489 115.281 9.63849 115.28 9.67239V25.6557C115.281 25.6896 115.274 25.7232 115.261 25.7546C115.248 25.7859 115.229 25.8144 115.205 25.8384C115.181 25.8624 115.153 25.8813 115.121 25.8942C115.09 25.9071 115.056 25.9137 115.023 25.9136M120.637 17.5602C120.242 17.8682 119.975 18.3127 119.837 18.8937C119.8 19.0536 119.925 19.2087 120.089 19.2087H124.618C124.776 19.2087 124.898 19.0687 124.875 18.9124C124.784 18.3641 124.548 17.9242 124.168 17.5964C123.721 17.2114 123.137 17.0201 122.415 17.0201C121.692 17.0201 121.101 17.2009 120.638 17.5614M126.44 16.2081C127.365 17.2207 127.84 18.6522 127.84 20.5014V20.8094C127.84 20.8433 127.833 20.8769 127.82 20.9082C127.807 20.9396 127.788 20.9681 127.764 20.992C127.74 21.016 127.712 21.035 127.681 21.0479C127.649 21.0608 127.616 21.0674 127.582 21.0672H120.015C119.855 21.0672 119.732 21.2131 119.76 21.3706C119.882 22.0706 120.185 22.6049 120.673 23.0097C121.229 23.4729 121.933 23.7039 122.779 23.7039C123.873 23.7039 124.884 23.2769 125.815 22.4229C125.842 22.3985 125.874 22.3801 125.909 22.3691C125.944 22.358 125.981 22.3544 126.017 22.3586C126.053 22.3628 126.088 22.3747 126.119 22.3934C126.15 22.4121 126.177 22.4373 126.198 22.4672L127.355 24.1286C127.392 24.1802 127.408 24.2436 127.401 24.3065C127.394 24.3694 127.363 24.4273 127.316 24.4692C126.748 24.9669 126.116 25.3867 125.437 25.7176C124.685 26.0862 123.798 26.2706 122.777 26.2706C121.611 26.2706 120.561 26.0314 119.694 25.5531C118.83 25.0901 118.119 24.3871 117.646 23.5289C117.16 22.6586 116.917 21.6622 116.917 20.5049C116.917 19.3476 117.153 18.3466 117.623 17.4692C118.093 16.5919 118.752 15.9082 119.601 15.4217C120.449 14.9352 121.436 14.6926 122.566 14.6926C124.229 14.6926 125.524 15.1989 126.449 16.2092M67.9406 11.2159C67.9397 11.6819 67.7541 12.1286 67.4246 12.4581C67.0951 12.7876 66.6484 12.9731 66.1824 12.9741C65.7164 12.9731 65.2698 12.7876 64.9402 12.4581C64.6107 12.1286 64.4252 11.6819 64.4243 11.2159C64.4252 10.7499 64.6107 10.3032 64.9402 9.9737C65.2698 9.64418 65.7164 9.45865 66.1824 9.45772C66.6484 9.45865 67.0951 9.64418 67.4246 9.9737C67.7541 10.3032 67.9397 10.7499 67.9406 11.2159Z" fill="#333333"/>
<path d="M19.1866 1.4073L4.16224 7.62563C3.32691 7.97097 3.34558 9.15863 4.17624 9.4923L19.2636 15.475C20.5893 16.0005 22.0655 16.0005 23.3912 15.475L38.4786 9.4923C39.3186 9.15863 39.3279 7.97213 38.4926 7.62563L23.4682 1.4073C22.0974 0.840145 20.5575 0.840145 19.1866 1.4073Z" fill="#FFCC00"/>
<path d="M22.668 18.7409V33.6743C22.668 34.3743 23.3843 34.8724 24.0446 34.6099L40.8446 28.0848C41.0324 28.0109 41.1936 27.882 41.307 27.7151C41.4204 27.5482 41.4809 27.3509 41.4805 27.1491V12.2158C41.4805 11.5158 40.7641 11.0176 40.1038 11.2801L23.3038 17.8053C23.116 17.8792 22.9549 18.008 22.8414 18.175C22.728 18.3419 22.6676 18.5391 22.668 18.7409Z" fill="#31C2F2"/>
<path d="M18.7432 19.5117L13.2599 22.1659L2.7272 27.2129C2.05986 27.5349 1.20703 27.0496 1.20703 26.3064V12.2784C1.20703 12.0101 1.3447 11.7767 1.52903 11.6041C1.60447 11.5287 1.69008 11.4643 1.78336 11.4127C1.92124 11.3338 2.07491 11.2865 2.23328 11.2742C2.39166 11.2619 2.55079 11.2849 2.6992 11.3416L18.6825 17.6696C19.4945 17.9916 19.5575 19.1279 18.7665 19.5129" fill="#ED3049"/>
<path d="M18.7434 19.5117L13.7524 21.9221L1.50244 11.6041C1.57788 11.5287 1.66349 11.4643 1.75677 11.4127C1.89465 11.3338 2.04832 11.2865 2.20669 11.2742C2.36507 11.2619 2.5242 11.2849 2.67261 11.3416L18.6559 17.6696C19.4679 17.9916 19.5309 19.1279 18.7399 19.5129" fill="#C62842"/>
</g>
<defs>
<clipPath id="clip0_70_422">
<rect width="128" height="35" fill="white" transform="translate(0.5 0.338867)"/>
</clipPath>
</defs>
</svg>
