<svg width="121" height="37" viewBox="0 0 121 37" fill="none" xmlns="http://www.w3.org/2000/svg">
<g clip-path="url(#clip0_70_450)">
<path d="M27.4395 9.14566V20.3155C27.4395 20.4965 27.3676 20.6702 27.2395 20.7982C27.1115 20.9262 26.9379 20.9982 26.7568 20.9982H23.2308C23.0498 20.9981 22.8762 20.9261 22.7481 20.7981C22.6201 20.6701 22.5482 20.4965 22.5481 20.3155V2.14722C22.5481 1.96616 22.62 1.79252 22.7481 1.66449C22.8761 1.53646 23.0497 1.46453 23.2308 1.46453H26.4937C26.6748 1.46453 26.8484 1.53646 26.9764 1.66449C27.1045 1.79252 27.1764 1.96616 27.1764 2.14722V4.70579C27.1764 4.70579 28.3428 1.05607 31.8044 1.05607C31.8044 1.05607 35.2284 0.64218 36.6205 4.44241C36.6205 4.44241 37.7869 1.05607 41.3238 1.05607C41.3238 1.05607 46.5836 0.743318 46.5836 6.18585L46.6236 9.18329V20.3531C46.6236 20.5342 46.5517 20.7078 46.4237 20.8358C46.2957 20.9639 46.122 21.0358 45.941 21.0358H42.4146C42.2336 21.0357 42.06 20.9638 41.932 20.8357C41.804 20.7077 41.732 20.5341 41.732 20.3531L41.6997 8.16738C41.8 5.40804 39.5677 5.60881 39.5677 5.60881C36.7584 5.65908 37.0287 9.18329 37.0287 9.18329V20.3531C37.0287 20.5342 36.9568 20.7078 36.8288 20.8358C36.7007 20.9639 36.5271 21.0358 36.346 21.0358H32.82C32.639 21.0357 32.4654 20.9638 32.3374 20.8357C32.2094 20.7077 32.1374 20.5341 32.1373 20.3531V8.44311C32.1373 8.44311 32.3435 5.58353 29.8349 5.58353C29.8352 5.58353 27.3519 5.25754 27.4395 9.14566ZM118.33 9.11225V20.2818C118.33 20.4628 118.258 20.6364 118.13 20.7644C118.002 20.8924 117.829 20.9644 117.648 20.9644L113.981 21.0355C113.8 21.0354 113.626 20.9635 113.498 20.8354C113.37 20.7074 113.298 20.5338 113.298 20.3528V8.44311C113.298 8.44311 113.504 5.58353 110.996 5.58353C110.996 5.58353 108.6 5.46553 108.6 9.94905V20.3152C108.6 20.4962 108.528 20.6698 108.4 20.7978C108.272 20.9258 108.098 20.9978 107.917 20.9979H104.391C104.21 20.9978 104.036 20.9258 103.908 20.7978C103.78 20.6698 103.708 20.4962 103.708 20.3152V2.14722C103.708 1.96619 103.78 1.79259 103.908 1.66458C104.036 1.53656 104.21 1.46461 104.391 1.46453H107.654C107.835 1.46453 108.009 1.53646 108.137 1.66449C108.265 1.79252 108.337 1.96616 108.337 2.14722V4.70579C108.337 4.70579 109.503 1.05607 112.965 1.05607C112.965 1.05607 116.673 0.493482 117.922 4.37167C117.922 4.37137 118.33 5.17145 118.33 9.11225ZM92.8711 0.980814C88.362 0.980814 84.7063 4.78104 84.7063 11.1775C84.7063 16.809 87.5283 21.3741 92.8711 21.3741C97.913 21.3741 101.036 16.809 101.036 11.1775C101.036 4.89392 97.3805 0.980814 92.8711 0.980814ZM95.7172 11.4032C95.7172 13.8113 95.4162 15.0906 95.4162 15.0906C94.9878 17.6362 93.1399 17.6398 92.8675 17.6263C92.5734 17.638 90.7099 17.6115 90.3243 15.0906C90.3243 15.0906 90.0233 13.8113 90.0233 11.4032V11.002C90.0233 8.59391 90.3243 7.31463 90.3243 7.31463C90.7099 4.79368 92.5738 4.7672 92.8675 4.77863C93.1399 4.76509 94.9878 4.7684 95.4162 7.31463C95.4162 7.31463 95.7172 8.59391 95.7172 11.002V11.4032ZM82.6598 4.68051V2.07377C82.6597 1.89274 82.5877 1.71914 82.4597 1.59113C82.3317 1.46312 82.1581 1.39117 81.9771 1.39109H70.322C70.141 1.39109 69.9673 1.46301 69.8393 1.59104C69.7113 1.71907 69.6393 1.89271 69.6393 2.07377V4.66034C69.6394 4.84137 69.7114 5.01497 69.8394 5.14298C69.9674 5.27099 70.141 5.34295 70.322 5.34302H76.4015L69.2056 15.782C69.2056 15.782 68.922 16.2052 68.9314 16.6727V19.848C68.9314 19.848 68.8844 20.9368 70.1191 20.3049C70.1191 20.3049 72.3123 18.9799 75.9897 18.9799C75.9897 18.9799 79.6214 18.9347 82.0427 20.419C82.0427 20.419 83.0477 20.8759 83.0477 19.8712V17.1073C83.0477 17.1073 83.139 16.3759 82.1796 15.9192C82.1796 15.9192 79.3929 14.3889 75.7384 14.64L82.6598 4.68051ZM19.8267 17.7491L18.7229 16.0688C18.3716 15.4415 18.3969 14.739 18.3969 14.739V6.98834C18.5474 0.290903 11.1224 0.867936 11.1224 0.867936C4.52193 0.867936 3.54696 6.00464 3.54696 6.00464C3.27184 7.0374 4.07192 7.06238 4.07192 7.06238L7.29722 7.38958C7.29722 7.38958 7.84716 7.5154 8.04733 6.86071C8.04733 6.86071 8.47206 4.6197 10.8473 4.6197C13.4318 4.6197 13.405 6.83783 13.405 6.83783V8.69475C8.2457 8.86723 5.85479 10.2994 5.85479 10.2994C2.66922 12.1055 2.86969 15.6926 2.86969 15.6926C2.86969 21.537 8.43834 21.2859 8.43834 21.2859C12.0002 21.2859 14.1072 18.6774 14.1072 18.6774C14.7342 19.7815 15.8883 20.8344 15.8883 20.8344C16.4656 21.4605 17.0673 20.9349 17.0673 20.9349L19.6762 18.7027C20.2529 18.2758 19.8267 17.7491 19.8267 17.7491ZM10.1767 17.6768C8.50126 17.6768 7.87847 16.012 8.1566 14.3757C8.43503 12.7394 9.88108 11.4535 13.4053 11.4911V12.4859C13.5302 16.8319 11.5712 17.6768 10.1767 17.6768ZM66.6834 17.7491L65.5799 16.0688C65.2287 15.4415 65.2536 14.739 65.2536 14.739V6.98834C65.4041 0.290903 57.9792 0.867936 57.9792 0.867936C51.3787 0.867936 50.4037 6.00464 50.4037 6.00464C50.1286 7.0374 50.9287 7.06238 50.9287 7.06238L54.154 7.38958C54.154 7.38958 54.7039 7.5154 54.9041 6.86071C54.9041 6.86071 55.3288 4.6197 57.7041 4.6197C60.2885 4.6197 60.2617 6.83783 60.2617 6.83783V8.69475C55.1027 8.86723 52.7115 10.2994 52.7115 10.2994C49.526 12.1055 49.7264 15.6926 49.7264 15.6926C49.7264 21.537 55.2951 21.2859 55.2951 21.2859C58.8569 21.2859 60.964 18.6774 60.964 18.6774C61.5913 19.7815 62.7447 20.8344 62.7447 20.8344C63.3221 21.4605 63.9241 20.9349 63.9241 20.9349L66.5326 18.7027C67.1097 18.2758 66.6834 17.7491 66.6834 17.7491ZM57.0334 17.6768C55.358 17.6768 54.7352 16.012 55.0133 14.3757C55.2918 12.7394 56.7378 11.4535 60.2617 11.4911V12.4859C60.3869 16.8319 58.4283 17.6768 57.0334 17.6768Z" fill="#001903"/>
<path d="M75.5619 32.4199C75.5619 32.4199 75.2669 32.9331 75.6294 33.0478C75.6294 33.0478 76.0387 33.2076 76.5492 32.7339C76.5492 32.7339 80.2724 29.4815 80.3621 23.56C80.3621 23.56 80.3895 22.8204 80.0927 22.6182C80.0927 22.6182 78.9263 21.5863 74.732 21.9003C74.732 21.9003 71.076 22.1471 69.08 23.9191C69.08 23.9191 68.9006 24.076 68.9006 24.2776C68.9006 24.2776 68.8576 24.7132 69.9548 24.5245C69.9548 24.5245 73.6105 24.0082 75.7862 24.2776C75.7862 24.2776 76.908 24.4122 77.222 24.7939C77.222 24.7939 77.7379 25.2201 77.4685 26.6327C77.4685 26.6333 76.728 30.2219 75.5619 32.4199Z" fill="#F3971B"/>
<path d="M74.8249 26.7387C74.8249 26.7387 75.371 27.4461 74.4899 28.0562C74.4899 28.0562 65.0783 35.5845 49.2754 35.5845C49.2754 35.5845 33.0083 36.387 19.4253 24.0456C19.4253 24.0456 18.9491 23.6275 19.2447 23.2389C19.2447 23.2389 19.509 22.8813 20.1932 23.2702C20.1932 23.2702 32.9706 31.2322 49.7519 31.2322C49.7519 31.2322 61.4159 31.6837 73.381 26.5666C73.381 26.5666 74.3343 26.0726 74.8249 26.7387Z" fill="#F3971B"/>
</g>
<defs>
<clipPath id="clip0_70_450">
<rect width="120" height="36.096" fill="white" transform="translate(0.5 0.291016)"/>
</clipPath>
</defs>
</svg>
