<svg width="81" height="34" viewBox="0 0 81 34" fill="none" xmlns="http://www.w3.org/2000/svg">
<path d="M14.7825 4.98755C13.8449 6.09776 12.3448 6.97341 10.8446 6.84832C10.6571 5.34719 11.3915 3.75225 12.251 2.76714C13.1886 1.62566 14.8294 0.812547 16.1577 0.75C16.314 2.31367 15.7045 3.84607 14.7825 4.98755ZM16.1421 7.14542C13.97 7.02032 12.1104 8.38072 11.079 8.38072C10.032 8.38072 8.4537 7.20796 6.73475 7.23924C4.50012 7.27051 2.42176 8.53709 1.281 10.5542C-1.06302 14.5885 0.671558 20.5617 2.93744 23.8454C4.04694 25.4716 5.37522 27.2542 7.12542 27.1917C8.78186 27.1291 9.43819 26.1128 11.4384 26.1128C13.4543 26.1128 14.0325 27.1917 15.7827 27.1604C17.5954 27.1291 18.7361 25.5342 19.8456 23.908C21.1114 22.0628 21.6271 20.2646 21.6583 20.1708C21.6271 20.1395 18.1579 18.8104 18.1267 14.8074C18.0954 11.4612 20.8614 9.86621 20.9864 9.77239C19.4237 7.45815 16.9859 7.20796 16.1421 7.14542ZM28.6904 2.61077V26.9884H32.4721V18.654H37.7071C42.4889 18.654 45.8486 15.3703 45.8486 10.6168C45.8486 5.86321 42.5514 2.61077 37.8321 2.61077H28.6904ZM32.4721 5.80066H36.832C40.1136 5.80066 41.9888 7.55197 41.9888 10.6324C41.9888 13.7128 40.1136 15.4798 36.8163 15.4798H32.4721V5.80066ZM52.7557 27.1761C55.1309 27.1761 57.3343 25.972 58.3344 24.0643H58.4126V26.9884H61.913V14.8543C61.913 11.3361 59.1001 9.06873 54.7715 9.06873C50.7554 9.06873 47.7863 11.3673 47.6769 14.5259H51.0836C51.3649 13.0248 52.7557 12.0397 54.6621 12.0397C56.9749 12.0397 58.2719 13.1186 58.2719 15.1045V16.4493L53.5526 16.7307C49.1615 16.9965 46.7862 18.7948 46.7862 21.9221C46.7862 25.0807 49.2396 27.1761 52.7557 27.1761ZM53.7714 24.2833C51.7555 24.2833 50.4741 23.3138 50.4741 21.8283C50.4741 20.2959 51.7087 19.4046 54.0683 19.2639L58.2719 18.998V20.3741C58.2719 22.657 56.3342 24.2833 53.7714 24.2833ZM66.5854 33.6184C70.2733 33.6184 72.0079 32.2111 73.5237 27.9423L80.165 9.30328H76.3208L71.8672 23.7047H71.7891L67.3354 9.30328H63.3819L69.7889 27.051L69.4451 28.1299C68.8669 29.9594 67.9293 30.663 66.2572 30.663C65.9603 30.663 65.3821 30.6318 65.1477 30.6005V33.5246C65.3665 33.5871 66.3041 33.6184 66.5854 33.6184Z" fill="#001903"/>
</svg>
