<svg width="100" height="81" viewBox="0 0 100 81" fill="none" xmlns="http://www.w3.org/2000/svg">
<g clip-path="url(#clip0_73_633)">
<path fill-rule="evenodd" clip-rule="evenodd" d="M64.9809 0.540549C74.8469 7.44336 77.3755 17.1282 74.5557 27.1183C70.3383 42.0446 54.2064 57.6468 33.2041 65.5918C32.7668 65.7531 32.1108 65.7313 31.743 65.5438C31.3653 65.3519 31.415 65.0685 31.8523 64.9028C52.5267 57.0799 68.3504 41.7045 72.4952 27.0049C75.2554 17.2416 72.873 7.7704 63.2216 1.02457C62.9135 0.810899 63.0626 0.531846 63.5496 0.396668C64.0267 0.265851 64.6728 0.32688 64.9809 0.540549Z" fill="#001903"/>
<path fill-rule="evenodd" clip-rule="evenodd" d="M15.3696 77.7325C26.9989 72.8574 36.0837 68.0607 51.9473 65.2482C52.484 65.1566 53.0903 65.2656 53.2991 65.5011C53.5177 65.7322 53.2593 65.9982 52.7325 66.0897C35.2786 69.1858 26.1938 74.7411 12.6263 80.0959C11.8908 80.3837 11.2745 80.205 11.1354 80.157C10.9266 80.0872 10.6483 79.9477 10.7477 79.7035C10.7676 79.6556 10.8373 79.5639 10.9764 79.4419C11.2547 79.2107 11.9107 78.7616 12.1592 78.548C12.8649 77.9288 13.5308 77.3052 14.2365 76.686C16.2542 74.9156 18.2223 73.1408 19.8922 71.305C26.1641 64.4415 31.3922 58.8468 24.9116 51.7391C24.6929 51.5036 24.9514 51.2419 25.4882 51.146C26.015 51.0544 26.6213 51.1678 26.83 51.3989C33.5392 58.7509 28.301 64.5461 21.8204 71.6451C20.1207 73.5027 18.1328 75.3036 16.0952 77.0915C15.8467 77.3052 15.6082 77.5189 15.3696 77.7325Z" fill="#001903"/>
</g>
<defs>
<clipPath id="clip0_73_633">
<rect width="100" height="80" fill="white" transform="matrix(-1 0 0 1 100 0.328125)"/>
</clipPath>
</defs>
</svg>
