<svg width="121" height="38" viewBox="0 0 121 38" fill="none" xmlns="http://www.w3.org/2000/svg">
<g clip-path="url(#clip0_70_442)">
<path d="M47.1604 24.9436C47.5058 25.0182 47.9071 25.0182 48.5138 25.0182C50.0678 25.0182 51.4491 24.3451 51.4491 22.5752C51.4491 20.8777 50.0678 20.2046 48.3411 20.2046H47.1744L47.1604 24.9436ZM47.1604 17.5259H48.2256C49.9231 17.5259 50.8156 16.6719 50.8156 15.3769C50.8156 14.0562 49.9814 13.3586 48.5429 13.3586C47.8231 13.3586 47.4206 13.4099 47.1616 13.4752L47.1604 17.5259ZM43.5928 10.4851H48.2536C50.4703 10.4851 51.7349 10.4384 52.8573 11.2551C53.9504 12.0554 54.5256 13.2664 54.5256 14.8717C54.5256 16.3884 54.1803 18.0917 52.1666 18.8151V18.8664C53.9796 19.0846 55.3609 20.8311 55.3609 23.0851C55.3609 24.6904 54.8126 26.1149 53.8069 26.9701C52.6554 27.9769 51.4479 28.2511 47.5069 28.2511H43.5939L43.5928 10.4851ZM70.6979 21.7504C70.6979 19.5956 70.4389 18.1512 68.8849 18.1512C67.3029 18.1512 66.9856 19.5606 66.9856 21.7737C66.9856 24.0604 67.5608 25.3729 68.8558 25.3729C70.1508 25.3729 70.6979 24.2296 70.6979 21.7504ZM68.8569 28.2604C64.9136 28.2604 63.6489 25.8571 63.6489 21.8181C63.6489 17.7791 65.1166 15.2007 69.0296 15.2007C72.9729 15.2007 74.1804 17.8304 74.1804 21.6139C74.1804 26.1639 72.7991 28.2604 68.8569 28.2604ZM82.5536 20.7237C82.5536 19.6737 82.3238 18.2551 80.9996 18.2551C79.7163 18.2551 79.1866 19.5559 79.1866 21.8694C79.1866 23.7652 79.5599 25.2504 80.9996 25.2504C82.4089 25.2504 82.5536 23.2671 82.5536 22.5974V20.7237ZM86.0933 26.4171C86.0933 28.8601 86.1516 30.9052 84.9418 32.2002C83.7903 33.3669 81.8921 33.5816 80.3381 33.5816C79.0723 33.5816 77.4214 33.3226 76.5114 32.8046C76.2233 32.6319 76.2233 32.2866 76.3388 31.9121L76.8568 30.2437C76.9007 30.1195 76.9918 30.0175 77.1104 29.9598C77.2289 29.9022 77.3654 29.8935 77.4903 29.9357C78.1809 30.2437 79.1306 30.3872 80.1666 30.3872C81.7206 30.3872 82.5256 30.2437 82.5256 27.8637V27.0471H82.4673C81.8058 27.9104 81.2014 28.2464 79.9939 28.2464C76.6853 28.2464 75.5921 25.5981 75.5921 21.9464C75.5921 17.8397 76.7144 15.2381 80.3404 15.2381C81.7789 15.2381 82.5571 15.9684 83.0739 17.0079L83.3329 15.8249C83.3329 15.8249 83.3913 15.5262 83.8509 15.5262H85.4609C85.9509 15.5262 86.1516 15.6429 86.1808 15.8762L86.0944 19.3179L86.0933 26.4171ZM94.8689 20.7237C94.8689 19.6737 94.6391 18.2551 93.3149 18.2551C92.0316 18.2551 91.5019 19.5559 91.5019 21.8694C91.5019 23.7652 91.8753 25.2504 93.3149 25.2504C94.7546 25.2504 94.8689 23.2671 94.8689 22.5974V20.7237ZM98.4086 26.4171C98.4086 28.8601 98.4669 30.9052 97.2571 32.2002C96.1348 33.3669 94.2074 33.5816 92.6838 33.5816C91.4004 33.5816 89.7484 33.3226 88.8279 32.8046C88.5689 32.6319 88.5689 32.2866 88.6844 31.9121L89.1744 30.2437C89.2911 29.8902 89.6924 29.8727 89.8359 29.9357C90.4974 30.2437 91.4763 30.3872 92.4843 30.3872C94.0383 30.3872 94.8433 30.2437 94.8433 27.8637V27.0471H94.7849C94.1514 27.9104 93.5191 28.2464 92.3396 28.2464C89.0029 28.2464 87.9086 25.5981 87.9086 21.9464C87.9086 17.8397 89.0309 15.2381 92.6569 15.2381C94.0954 15.2381 94.8736 15.9684 95.4196 17.0079L95.6494 15.8249C95.6494 15.8249 95.7078 15.5262 96.1674 15.5262H97.8031C98.2639 15.5262 98.4646 15.6429 98.4938 15.8762L98.4074 19.3179L98.4086 26.4171ZM106.897 20.3504C106.897 19.4789 106.839 17.9541 105.43 17.9541C104.076 17.9541 103.848 19.3809 103.789 20.3504H106.897ZM103.905 22.7502C104.021 24.3789 104.739 25.3834 106.293 25.3834C107.3 25.3834 107.358 25.3286 108.766 24.8351C108.996 24.7534 109.428 24.6974 109.543 25.0101L110.148 26.7367C110.32 27.2197 109.687 27.4717 109.687 27.4717C108.594 28.0084 107.269 28.2604 105.802 28.2604C102.148 28.2604 100.076 25.8104 100.076 21.9044C100.076 18.7509 101.284 15.2544 105.512 15.2544C109.569 15.2544 110.289 18.3811 110.289 21.4576C110.289 22.1191 110.202 22.7666 109.598 22.7666L103.905 22.7502ZM61.3214 24.9436C62.7028 24.9436 62.7599 24.9436 63.0761 27.2162C63.1624 27.8229 62.6444 28.2662 61.9538 28.2662H59.1281C58.1784 28.2662 57.2871 27.2396 57.2579 26.2922V10.8222C57.2579 10.6239 57.4014 10.4629 57.6033 10.4629H60.2516C60.4534 10.4629 60.6249 10.6239 60.6249 10.8222V24.3136C60.6249 24.8117 60.6833 24.9202 61.3156 24.9202L61.3214 24.9436ZM118.725 15.2136C118.207 15.2077 116.855 15.0211 115.56 16.6812H115.473L115.33 15.5566L112.28 15.5881V27.9081C112.28 28.1064 112.424 28.2674 112.626 28.2674H115.561C115.763 28.2674 115.934 28.1064 115.934 27.9081L115.905 21.6466C115.908 21.2978 115.927 20.9494 115.962 20.6024C116.079 19.0484 116.48 18.4732 117.803 18.4732C118.235 18.4732 119.012 18.7066 119.357 18.8069C119.731 18.9189 119.932 18.5082 119.932 18.5082L120.335 16.1947C120.421 15.5554 119.242 15.2182 118.725 15.2136Z" fill="#003366"/>
<path d="M36.5718 31.9412C36.5718 34.9337 34.1545 37.3219 31.1911 37.3219H5.98646C3.00563 37.3219 0.591797 34.9337 0.591797 31.9412V6.73891C0.591797 3.76041 3.0068 1.34424 5.98646 1.34424H31.1771C34.1405 1.34424 36.5578 3.75924 36.5578 6.73891V31.9296" fill="#FF6600"/>
<path d="M14.7366 8.13867C12.8291 8.13991 11.0001 8.89821 9.65131 10.247C8.30251 11.5958 7.5442 13.4248 7.54297 15.3323V23.2248C7.54297 27.1985 10.7653 30.415 14.7366 30.415H22.4798C26.4535 30.415 29.6641 27.1985 29.6641 23.2248V18.1265C29.6641 17.3332 29.0283 16.688 28.2338 16.688H26.9936C26.6301 16.6877 26.2802 16.5493 26.0147 16.3009C25.7492 16.0525 25.5878 15.7126 25.5633 15.3498L25.5551 15.3323C25.5551 11.3587 22.3351 8.13867 18.3615 8.13867H14.7366ZM14.5581 13.9743H18.6321C19.3951 13.9743 20.0158 14.5927 20.0158 15.358C20.0146 15.7246 19.8684 16.0758 19.6092 16.335C19.35 16.5943 18.9987 16.7404 18.6321 16.7417H14.5581C14.1915 16.7404 13.8403 16.5943 13.5811 16.335C13.3219 16.0758 13.1757 15.7246 13.1745 15.358C13.1745 14.5927 13.7963 13.9743 14.5581 13.9743ZM14.55 22.0745H22.7248C22.8966 22.0737 23.0668 22.1069 23.2258 22.172C23.3848 22.2371 23.5294 22.3329 23.6513 22.4539C23.7732 22.575 23.87 22.7188 23.9363 22.8774C24.0025 23.0359 24.0368 23.2059 24.0373 23.3777C24.0364 23.7257 23.8979 24.0592 23.652 24.3056C23.4061 24.5519 23.0728 24.691 22.7248 24.6925H14.55C13.8266 24.6925 13.2468 24.0998 13.2468 23.3777C13.2468 22.6555 13.8278 22.0745 14.55 22.0745Z" fill="#FCFCFC"/>
</g>
<defs>
<clipPath id="clip0_70_442">
<rect width="120" height="37" fill="white" transform="translate(0.5 0.838867)"/>
</clipPath>
</defs>
</svg>
