<svg width="140" height="50" viewBox="0 0 140 50" fill="none" xmlns="http://www.w3.org/2000/svg">
<g clip-path="url(#clip0_70_461)">
<path d="M2.92331 2.93491L29.8081 0.949323C33.1104 0.6659 33.959 0.857008 36.0353 2.36644L44.6174 8.41228C46.0329 9.45204 46.5042 9.73546 46.5042 10.8675V44.0249C46.5042 46.1028 45.7495 47.332 43.1079 47.5199L11.8876 49.4099C9.90526 49.5039 8.96105 49.2204 7.92291 47.8973L1.60337 39.6796C0.469674 38.1669 0 37.0348 0 35.7117V6.23882C0 4.5399 0.754717 3.12278 2.92331 2.93491Z" fill="#FCFCFC"/>
<path d="M29.8081 0.949323L2.92331 2.93491C0.754717 3.12278 0 4.5399 0 6.23882V35.7117C0 37.0348 0.469674 38.1669 1.60337 39.6796L7.92291 47.8973C8.96105 49.2204 9.90526 49.5039 11.8876 49.4099L43.1079 47.5199C45.7478 47.332 46.5042 46.1028 46.5042 44.0249V10.8675C46.5042 9.79376 46.0798 9.48443 44.8312 8.56775C44.7593 8.516 44.6875 8.46417 44.6158 8.41228L36.0353 2.36644C33.959 0.857008 33.1104 0.6659 29.8081 0.949323ZM12.5937 10.325C10.0445 10.4967 9.46635 10.5355 8.01846 9.3581L4.33719 6.42993C3.96307 6.05095 4.15094 5.57804 5.09353 5.4841L30.9385 3.59569C33.1088 3.4062 34.2392 4.16254 35.0879 4.82332L39.5206 8.03492C39.7101 8.13047 40.1814 8.6957 39.6145 8.6957L12.9241 10.3023L12.5937 10.325ZM9.62183 43.7415V15.5934C9.62183 14.3642 9.99919 13.7973 11.1296 13.7018L41.7848 11.9073C42.8245 11.8134 43.2942 12.4741 43.2942 13.7018V41.6619C43.2942 42.8912 43.1047 43.9309 41.4074 44.0249L12.0722 45.7254C10.3749 45.8194 9.62183 45.2541 9.62183 43.7415ZM38.5796 17.1029C38.7675 17.9531 38.5796 18.8034 37.7294 18.9006L36.3155 19.1808V39.963C35.0879 40.6238 33.9574 41.0012 33.0132 41.0012C31.5038 41.0012 31.1264 40.5282 29.996 39.1127L20.7499 24.5658V38.6398L23.6748 39.3022C23.6748 39.3022 23.6748 41.0028 21.3151 41.0028L14.8093 41.3801C14.6198 41.0011 14.8093 40.0569 15.4685 39.8691L17.1674 39.3978V20.789L14.8093 20.5979C14.6198 19.7476 15.0911 18.52 16.4127 18.4244L23.393 17.9548L33.0132 32.6895V19.6537L30.5612 19.3719C30.3717 18.3305 31.1264 17.5742 32.069 17.4818L38.5796 17.1029Z" fill="#001903"/>
<path d="M67.105 35.2568V22.446H67.3269L76.5649 35.2568H79.4736V16.431H76.2393V29.2288H76.0174L66.7794 16.431H63.8594V35.2552H67.1066L67.105 35.2568ZM88.6144 35.5451C92.882 35.5451 95.4781 32.7529 95.4781 28.121C95.4781 23.502 92.869 20.6969 88.6144 20.6969C84.3744 20.6969 81.7523 23.5149 81.7523 28.121C81.7523 32.7529 84.3355 35.5451 88.6144 35.5451ZM88.6144 32.8307C86.3584 32.8307 85.0676 31.1091 85.0676 28.121C85.0676 25.1458 86.3584 23.4113 88.6144 23.4113C90.8591 23.4113 92.1499 25.1458 92.1499 28.121C92.1499 31.1091 90.8721 32.8307 88.6144 32.8307ZM98.4338 17.4885V21.0759H96.1778V23.6591H98.4338V31.4476C98.4338 34.2138 99.7392 35.3232 103.014 35.3232C103.639 35.3232 104.24 35.2584 104.71 35.1661V32.6347C104.318 32.6736 104.07 32.6995 103.613 32.6995C102.258 32.6995 101.657 32.0743 101.657 30.6653V23.6591H104.71V21.0759H101.657V17.4869H98.4338V17.4885ZM106.648 35.2568H109.871V20.9836H106.648V35.2568ZM108.253 18.6239C109.322 18.6239 110.184 17.7606 110.184 16.6788C110.184 15.5953 109.324 14.7207 108.253 14.7207C107.197 14.7207 106.323 15.5953 106.323 16.6788C106.323 17.7606 107.197 18.6222 108.253 18.6222V18.6239ZM118.712 35.5451C122.978 35.5451 125.574 32.7529 125.574 28.121C125.574 23.502 122.965 20.6969 118.712 20.6969C114.471 20.6969 111.849 23.5149 111.849 28.121C111.849 32.7529 114.432 35.5451 118.712 35.5451ZM118.712 32.8307C116.455 32.8307 115.162 31.1091 115.162 28.121C115.162 25.1458 116.455 23.4113 118.712 23.4113C120.955 23.4113 122.248 25.1458 122.248 28.121C122.248 31.1091 120.968 32.8307 118.712 32.8307ZM127.5 35.2568H130.736V26.9468C130.736 24.8462 131.951 23.5149 133.88 23.5149C135.851 23.5149 136.762 24.6114 136.762 26.7897V35.2568H140V26.0204C140 22.6145 138.264 20.6969 135.081 20.6969C132.953 20.6969 131.518 21.6751 130.84 23.2671H130.618V20.9836H127.5V35.2568Z" fill="#001903"/>
</g>
<defs>
<clipPath id="clip0_70_461">
<rect width="140" height="48.6719" fill="white" transform="translate(0 0.838867)"/>
</clipPath>
</defs>
</svg>
