<svg width="100" height="26" viewBox="0 0 100 26" fill="none" xmlns="http://www.w3.org/2000/svg">
<g clip-path="url(#clip0_70_455)">
<path d="M25.7119 18.9998V3.25781H35.0079V5.22981H27.6339V10.0698H34.2619V12.0418H27.6339V16.9798H35.5219V18.9518H25.7219L25.7119 18.9998ZM45.2979 18.9998L42.0999 14.8248L38.9179 19.0008H36.6639L41.0389 13.4168L36.4319 7.63381H38.9669L42.1149 11.9588L45.3129 7.63381H47.7989L43.4239 13.4168L47.5499 19.0008L45.2979 18.9998ZM50.6499 17.2998V25.0748H48.7279V13.4748C48.7279 10.5088 50.9819 7.35981 54.5109 7.35981C58.0739 7.35981 60.7579 9.61381 60.7579 13.3248C60.7579 16.9368 58.0399 19.4398 54.9419 19.4398C53.4339 19.4398 51.4119 18.7768 50.6499 17.3198V17.2998ZM58.7359 13.3058C58.7359 10.7708 57.0959 9.26281 54.1789 9.41181C52.7789 9.46181 50.6159 10.4888 50.7989 14.1118C50.8489 15.2888 52.0749 17.4918 54.7429 17.4918C57.0459 17.5088 58.7369 16.1918 58.7369 13.3158L58.7359 13.3058ZM62.3999 18.9898V7.63181H64.3219V8.85781C65.2669 7.78081 66.7249 7.39981 68.2659 7.39981V9.46981C68.0339 9.41981 65.7309 9.13981 64.3219 12.1538V19.0538H62.3999V18.9898ZM68.7949 13.3148C68.7949 10.0348 71.1479 7.34981 74.3789 7.34981C78.4219 7.34981 79.9139 10.0338 79.9139 13.4648V14.4098H70.8999C71.0499 16.5638 72.9699 17.6898 74.7439 17.6578C76.0439 17.6078 76.9479 17.2278 77.8919 16.2978L79.1679 17.5978C77.9909 18.7248 76.4839 19.4698 74.6609 19.4698C71.2309 19.4198 68.7949 16.8848 68.7949 13.3058V13.3148ZM74.2299 9.27181C72.3899 9.27181 70.9819 10.8718 70.8999 12.6018H77.8929C77.8929 10.9278 76.6919 9.27181 74.2299 9.27181Z" fill="#E43225"/>
<path d="M80.9077 17.4086L82.3077 16.1326C82.2577 16.1326 83.0207 16.8786 83.1027 16.9276C83.4099 17.201 83.7799 17.3944 84.1797 17.4906C85.4057 17.8206 87.6097 17.7226 87.7917 16.0326C87.8917 15.0876 87.1787 14.5746 86.3917 14.2326C85.3647 13.8526 84.2377 13.7186 83.1937 13.2386C82.0167 12.7246 81.2717 11.8386 81.2717 10.5206C81.2717 7.09064 86.1597 6.52664 88.3637 8.11764L89.4907 9.19464L88.0907 10.3216C87.3777 9.47664 86.7307 9.04564 85.2237 9.04564C84.4777 9.04564 83.4237 9.37564 83.2517 10.1726C82.9697 11.2996 84.2457 11.7306 85.0917 11.9726C86.2187 12.2546 87.4447 12.4366 88.4217 13.0496C89.7817 13.8946 90.1217 15.7336 89.5987 17.1426C89.0357 18.7006 87.3447 19.2966 85.8367 19.3466C84.0367 19.4466 82.5067 18.8826 81.2297 17.6066C81.1467 17.6396 80.9147 17.4066 80.9147 17.4066L80.9077 17.4086Z" fill="#E43225"/>
<path d="M90.8179 17.4086L92.2179 16.1326C92.1679 16.1326 92.9309 16.8786 93.0129 16.9276C93.3201 17.201 93.69 17.3944 94.0899 17.4906C95.3159 17.8206 97.5199 17.7226 97.7019 16.0326C97.8019 15.0876 97.0889 14.5746 96.3019 14.2326C95.2749 13.8526 94.1479 13.7186 93.1039 13.2386C91.9269 12.7246 91.1819 11.8386 91.1819 10.5206C91.1819 7.09064 96.0699 6.52664 98.2739 8.11764L99.4009 9.19464L98.0009 10.3216C97.2879 9.47664 96.6409 9.04564 95.1339 9.04564C94.3879 9.04564 93.3339 9.37564 93.1619 10.1726C92.8799 11.2996 94.1559 11.7306 95.0019 11.9726C96.1289 12.2546 97.3549 12.4366 98.3319 13.0496C99.6919 13.8946 100.032 15.7336 99.5089 17.1426C98.9459 18.7006 97.2549 19.2966 95.7469 19.3466C93.9469 19.4466 92.4169 18.8826 91.1399 17.6066C91.0569 17.6396 90.8249 17.4066 90.8249 17.4066L90.8179 17.4086Z" fill="#E43225"/>
<path d="M12.6537 18.9997L11.2537 15.2377H3.63973L2.23973 18.9997H0.219727L6.33473 3.25767H8.53873L14.6037 18.9997H12.6537ZM7.34973 5.52767L4.48273 13.3327H10.4477L7.34973 5.52767ZM15.8517 18.9997V3.25767H17.8237V18.9997H15.8517ZM20.7897 18.9997V7.87467H22.7617V19.0097L20.7897 18.9997ZM24.6337 4.25167V4.05167C23.1257 4.00167 21.9157 2.77567 21.8667 1.28467H21.5697C21.5197 2.79267 20.2937 4.00267 18.8027 4.05167V4.25167C20.3107 4.30167 21.5207 5.52767 21.5697 7.01867H21.8677C21.8933 6.29297 22.1931 5.60395 22.7065 5.09049C23.22 4.57702 23.908 4.27728 24.6337 4.25167Z" fill="#F7971D"/>
</g>
<defs>
<clipPath id="clip0_70_455">
<rect width="100" height="25" fill="white" transform="translate(0 0.674805)"/>
</clipPath>
</defs>
</svg>
