<svg width="102" height="21" viewBox="0 0 102 21" fill="none" xmlns="http://www.w3.org/2000/svg">
<path d="M8.16508 3.58274C6.96308 3.58274 6.62208 4.11574 6.62208 5.28974V7.22974H9.81808L9.50408 10.3697H6.62208V19.8897H2.79808V10.3697H0.205078V7.22974H2.78508V5.34474C2.78508 2.17674 4.05508 0.510742 7.61908 0.510742C8.38408 0.510742 9.29908 0.565743 9.84508 0.647743V3.59774M10.0651 13.9497C10.0651 17.4867 11.7451 20.1357 15.2411 20.1357C17.1531 20.1357 18.3551 19.1797 18.8871 17.9657V19.8777H22.5611V7.22774H18.8871V9.16774C18.3271 7.95274 17.1671 6.95574 15.2411 6.95574C11.7411 6.95574 10.0651 9.61874 10.0651 13.1417M13.9031 13.0867C13.9031 11.2017 14.5991 9.94674 16.3751 9.94674C17.9451 9.94674 18.7381 11.0937 18.7381 12.8967V14.1667C18.7381 15.9697 17.9461 17.1167 16.3751 17.1167C14.6001 17.1167 13.9031 15.8737 13.9031 13.9767V13.0867ZM30.5371 6.95474C26.0551 6.95674 24.0051 9.37274 24.0051 13.2517V13.8387C24.0051 17.7167 26.0531 20.1347 30.5471 20.1347C32.0471 20.1347 33.4421 19.8207 34.2211 19.2877L33.3741 16.5697C32.5751 16.9475 31.7038 17.1478 30.8201 17.1567C28.7441 17.1567 27.8431 15.9547 27.8431 13.9197V13.1827C27.8431 11.1347 28.7431 9.94574 30.8201 9.94574C31.8201 9.94574 32.7871 10.2327 33.3741 10.5327L34.2211 7.81474C33.4431 7.26874 32.0361 6.95474 30.5471 6.95474M34.7121 14.0287C34.7121 17.7437 36.5151 20.1607 41.3491 20.1607C43.1791 20.1607 45.2551 19.7647 46.2651 19.2307L45.5691 16.5947C44.4491 17.0727 42.9331 17.3597 41.4991 17.3597C39.3691 17.3597 38.6041 16.5947 38.5221 14.8597H46.5791V12.8397C46.5791 9.33974 44.8591 6.93974 40.9251 6.93974C36.7451 6.93974 34.7111 9.30274 34.7111 12.8937V14.0367M38.5351 12.3847C38.5351 10.6777 39.2051 9.59874 40.9351 9.59874C42.6151 9.59874 43.1611 10.6917 43.1611 12.0707V12.3847H38.5351ZM60.7821 13.1497C60.7821 9.61274 59.0751 6.96374 55.5791 6.96374C53.8041 6.96374 52.5751 7.86374 52.0151 8.98374V0.530743L48.1911 0.870743V19.8707H51.8111V17.9587C52.3441 19.1737 53.6681 20.1437 55.5811 20.1437C59.0811 20.1437 60.7841 17.4807 60.7841 13.9577M56.9601 14.0127C56.9601 15.7877 56.2641 17.1267 54.4341 17.1267C52.8641 17.1267 52.0171 16.0067 52.0171 14.2037V12.8787C52.0171 11.0757 52.8641 9.95574 54.4341 9.95574C56.2641 9.95574 56.9601 11.2807 56.9601 13.0697V14.0127ZM62.0681 13.8627C62.0681 17.5087 64.1441 20.1307 68.3641 20.1307C72.5841 20.1307 74.6601 17.4947 74.6601 13.8627V13.2207C74.6601 9.57474 72.5841 6.95274 68.3641 6.95274C64.1441 6.95274 62.0681 9.58874 62.0681 13.2207V13.8627ZM70.8361 14.1227C70.8361 15.8027 70.1401 17.1267 68.3641 17.1267C66.5881 17.1267 65.8921 15.8017 65.8921 14.1227V12.9487C65.8921 11.2687 66.5881 9.94474 68.3641 9.94474C70.1401 9.94474 70.8361 11.2697 70.8361 12.9487V14.1227ZM75.9301 13.8627C75.9301 17.5087 78.0061 20.1307 82.2261 20.1307C86.4461 20.1307 88.5221 17.4947 88.5221 13.8627V13.2207C88.5221 9.57474 86.4461 6.95274 82.2261 6.95274C78.0061 6.95274 75.9301 9.58874 75.9301 13.2207V13.8627ZM84.7101 14.1227C84.7101 15.8027 84.0141 17.1267 82.2381 17.1267C80.4621 17.1267 79.7651 15.8267 79.7651 14.1267V12.9527C79.7651 11.2727 80.4611 9.94874 82.2371 9.94874C84.0131 9.94874 84.7091 11.2737 84.7091 12.9527L84.7101 14.1227ZM93.7921 0.520742L89.9681 0.860743V19.8367H93.7921V13.6507L97.7251 19.8367H101.795L97.6711 13.4367L101.631 7.19674H97.5611L93.7911 13.2327" fill="#3C5A99"/>
</svg>
