<svg width="128" height="43" viewBox="0 0 128 43" fill="none" xmlns="http://www.w3.org/2000/svg">
<g clip-path="url(#clip0_70_495)">
<path d="M32.2733 16.1924H17.6667V20.5266H28.0267C27.5133 26.5933 22.4582 29.1973 17.6842 29.1973C16.1718 29.2039 14.6732 28.9092 13.276 28.3303C11.8787 27.7515 10.6108 26.9001 9.54624 25.8258C8.48166 24.7516 7.64175 23.476 7.07554 22.0736C6.50934 20.6712 6.22818 19.17 6.2485 17.6578C6.2485 11.0964 11.3282 6.04475 17.6982 6.04475C22.6122 6.04475 25.5078 9.17725 25.5078 9.17725L28.5412 6.03425C28.5412 6.03425 24.6445 1.69775 17.5395 1.69775C8.492 1.69775 1.49316 9.33359 1.49316 17.5808C1.49316 25.6623 8.07667 33.5431 17.7682 33.5431C26.293 33.5431 32.5335 27.7028 32.5335 19.0671C32.5335 17.2448 32.2687 16.1924 32.2687 16.1924H32.2733Z" fill="#4885ED"/>
<path d="M44.2397 13.0529C38.2454 13.0529 33.9497 17.7394 33.9497 23.2029C33.9497 28.7493 38.1147 33.5221 44.3097 33.5221C49.9167 33.5221 54.5099 29.2369 54.5099 23.3219C54.5099 16.5553 49.1665 13.0518 44.2397 13.0518V13.0529ZM44.298 17.0733C47.245 17.0733 50.038 19.4568 50.038 23.2963C50.038 27.0529 47.2567 29.5053 44.284 29.5053C41.0174 29.5053 38.4507 26.8896 38.4507 23.2659C38.4507 19.7193 40.994 17.0733 44.3074 17.0733H44.298Z" fill="#DB3236"/>
<path d="M66.6176 13.0529C60.6233 13.0529 56.3276 17.7394 56.3276 23.2029C56.3276 28.7493 60.4926 33.5221 66.6876 33.5221C72.2946 33.5221 76.8878 29.2369 76.8878 23.3219C76.8878 16.5553 71.5445 13.0518 66.6176 13.0518V13.0529ZM66.676 17.0733C69.623 17.0733 72.416 19.4568 72.416 23.2963C72.416 27.0529 69.6346 29.5053 66.662 29.5053C63.3953 29.5053 60.8286 26.8896 60.8286 23.2659C60.8286 19.7193 63.372 17.0733 66.6853 17.0733H66.676Z" fill="#F4C20D"/>
<path d="M88.5659 13.0649C83.0639 13.0649 78.7402 17.8833 78.7402 23.2919C78.7402 29.4519 83.7534 33.5376 88.4702 33.5376C91.3869 33.5376 92.9386 32.3791 94.0702 31.0503V33.0686C94.0702 36.6001 91.9259 38.7153 88.6896 38.7153C85.5629 38.7153 83.9949 36.3901 83.4396 35.0718L79.5056 36.7051C80.9009 39.6568 83.7102 42.7333 88.7222 42.7333C94.2056 42.7333 98.3612 39.2881 98.3612 32.0618V13.6798H94.0866V15.4134C92.7682 13.9901 90.9622 13.0649 88.5682 13.0649H88.5659ZM88.9626 17.0783C91.6599 17.0783 94.4296 19.3813 94.4296 23.3141C94.4296 27.3123 91.6646 29.5149 88.9031 29.5149C85.9701 29.5149 83.2412 27.1349 83.2412 23.3514C83.2412 19.4221 86.0762 17.0783 88.9626 17.0783Z" fill="#4885ED"/>
<path d="M117.467 13.04C112.277 13.04 107.92 17.17 107.92 23.26C107.92 29.707 112.777 33.5302 117.953 33.5302C122.284 33.5302 124.953 31.1619 126.528 29.0385L122.99 26.6842C122.072 28.1075 120.536 29.5017 117.975 29.5017C115.098 29.5017 113.775 27.9267 112.955 26.3984L126.679 20.705L125.979 19.0367C124.653 15.77 121.559 13.04 117.467 13.04ZM117.645 16.9764C119.515 16.9764 120.861 17.9704 121.432 19.1627L112.267 22.9929C111.87 20.0272 114.682 16.9764 117.634 16.9764H117.645Z" fill="#DB3236"/>
<path d="M101.367 32.9238H105.875V2.75732H101.367V32.9238Z" fill="#0DC514"/>
</g>
<defs>
<clipPath id="clip0_70_495">
<rect width="127" height="42" fill="white" transform="translate(0.5 0.838867)"/>
</clipPath>
</defs>
</svg>
